#Comment line ignore any data following # character 
#Hierarchical Translation and Rotation (.htr) file 
[Header]	
#Header keywords are followed by a single value 
FileType HTR		#Single word string
DataType HTRS		#Translation followed by rotation and scale data
FileVersion 1		#integer
NumSegments 84		#integer
NumFrames 2		#integer
DataFrameRate 30		#integer, data frame rate in this file
EulerRotationOrder ZYX
CalibrationUnits mm
RotationUnits Degrees
GlobalAxisofGravity Y
BoneLengthAxis Y
ScaleFactor 1.00
[SegmentNames&Hierarchy]
#CHILD	PARENT
MASTER GLOBAL
root MASTER
chest root
L_mid_tent01 root
R_mid_tent01 root
spine01 root
Bip01_Neck chest
L_humerus chest
R_humerus chest
weapon_bone chest
Bip01_Head Bip01_Neck
eye_left_bone Bip01_Head
eye_right_bone Bip01_Head
L_forearm L_humerus
L_front_hand L_forearm
L_weapon_bone L_forearm
L_front_hand01_01 L_front_hand
L_front_hand02_01 L_front_hand
L_front_hand03_01 L_front_hand
L_front_hand01_02 L_front_hand01_01
L_front_hand02_02 L_front_hand02_01
L_front_hand03_02 L_front_hand03_01
R_forearm R_humerus
R_front_hand R_forearm
R_weapon_bone R_forearm
R_front_hand01_01 R_front_hand
R_front_hand02_01 R_front_hand
R_front_hand03_01 R_front_hand
R_front_hand01_02 R_front_hand01_01
R_front_hand02_02 R_front_hand02_01
R_front_hand03_02 R_front_hand03_01
null_rope01_connect L_mid_tent01
Rope1_Seg01 null_rope01_connect
Rope1_Seg02 Rope1_Seg01
Rope1_Seg03 Rope1_Seg02
Rope1_Seg04 Rope1_Seg03
Rope1_Seg05 Rope1_Seg04
Rope1_Seg06 Rope1_Seg05
Rope1_Seg07 Rope1_Seg06
Rope1_Seg09 Rope1_Seg07
L_mid_hand01 Rope1_Seg09
L_mid_hand02 Rope1_Seg09
L_mid_hand03 Rope1_Seg09
null_rope02_connect R_mid_tent01
Rope2_Seg01 null_rope02_connect
Rope2_Seg02 Rope2_Seg01
Rope2_Seg03 Rope2_Seg02
Rope2_Seg04 Rope2_Seg03
Rope2_Seg05 Rope2_Seg04
Rope2_Seg06 Rope2_Seg05
Rope2_Seg07 Rope2_Seg06
Rope2_Seg09 Rope2_Seg07
R_mid_hand01 Rope2_Seg09
R_mid_hand02 Rope2_Seg09
R_mid_hand03 Rope2_Seg09
spine02 spine01
spine03 spine02
pelvis spine03
null_rope03_connect pelvis
null_rope04_connect pelvis
Rope3_Seg01 null_rope03_connect
Rope3_Seg02 Rope3_Seg01
Rope3_Seg03 Rope3_Seg02
Rope3_Seg04 Rope3_Seg03
Rope3_Seg05 Rope3_Seg04
Rope3_Seg06 Rope3_Seg05
Rope3_Seg07 Rope3_Seg06
Rope3_Seg08 Rope3_Seg07
Rope3_Seg09 Rope3_Seg08
R_rear_hand01 Rope3_Seg09
R_rear_hand02 Rope3_Seg09
R_rear_hand03 Rope3_Seg09
Rope4_Seg01 null_rope04_connect
Rope4_Seg02 Rope4_Seg01
Rope4_Seg03 Rope4_Seg02
Rope4_Seg04 Rope4_Seg03
Rope4_Seg05 Rope4_Seg04
Rope4_Seg06 Rope4_Seg05
Rope4_Seg07 Rope4_Seg06
Rope4_Seg08 Rope4_Seg07
Rope4_Seg09 Rope4_Seg08
L_rear_hand01 Rope4_Seg09
L_rear_hand02 Rope4_Seg09
L_rear_hand03 Rope4_Seg09
[BasePosition]
#SegmentName Tx, Ty, Tz, Rx, Ry, Rz, BoneLength
MASTER 0.000000 0.000000 0.000000 -90.000000 0.000000 0.000000 10.000000 
root 0.000000 0.000000 0.000000 0.000000 0.000000 0.000000 10.000000 
chest 0.000000 0.000000 0.000000 0.000000 0.000000 0.000000 10.000000 
L_mid_tent01 0.000000 0.000000 0.000000 0.000000 0.000000 0.000000 10.000000 
R_mid_tent01 0.000000 0.000000 0.000000 0.000000 0.000000 0.000000 10.000000 
spine01 0.000000 0.000000 0.000000 0.000000 0.000000 0.000000 10.000000 
Bip01_Neck 0.000000 0.000000 0.000000 0.000000 0.000000 0.000000 10.000000 
L_humerus 0.000000 0.000000 0.000000 0.000000 0.000000 0.000000 10.000000 
R_humerus 0.000000 0.000000 0.000000 0.000000 0.000000 0.000000 10.000000 
weapon_bone 0.000000 0.000000 0.000000 0.000000 0.000000 0.000000 10.000000 
Bip01_Head 0.000000 0.000000 0.000000 0.000000 0.000000 0.000000 10.000000 
eye_left_bone 0.000000 0.000000 0.000000 0.000000 0.000000 0.000000 10.000000 
eye_right_bone 0.000000 0.000000 0.000000 0.000000 0.000000 0.000000 10.000000 
L_forearm 0.000000 0.000000 0.000000 0.000000 0.000000 0.000000 10.000000 
L_front_hand 0.000000 0.000000 0.000000 0.000000 0.000000 0.000000 10.000000 
L_weapon_bone 0.000000 0.000000 0.000000 0.000000 0.000000 0.000000 10.000000 
L_front_hand01_01 0.000000 0.000000 0.000000 0.000000 0.000000 0.000000 10.000000 
L_front_hand02_01 0.000000 0.000000 0.000000 0.000000 0.000000 0.000000 10.000000 
L_front_hand03_01 0.000000 0.000000 0.000000 0.000000 0.000000 0.000000 10.000000 
L_front_hand01_02 0.000000 0.000000 0.000000 0.000000 0.000000 0.000000 10.000000 
L_front_hand02_02 0.000000 0.000000 0.000000 0.000000 0.000000 0.000000 10.000000 
L_front_hand03_02 0.000000 0.000000 0.000000 0.000000 0.000000 0.000000 10.000000 
R_forearm 0.000000 0.000000 0.000000 0.000000 0.000000 0.000000 10.000000 
R_front_hand 0.000000 0.000000 0.000000 0.000000 0.000000 0.000000 10.000000 
R_weapon_bone 0.000000 0.000000 0.000000 0.000000 0.000000 0.000000 10.000000 
R_front_hand01_01 0.000000 0.000000 0.000000 0.000000 0.000000 0.000000 10.000000 
R_front_hand02_01 0.000000 0.000000 0.000000 0.000000 0.000000 0.000000 10.000000 
R_front_hand03_01 0.000000 0.000000 0.000000 0.000000 0.000000 0.000000 10.000000 
R_front_hand01_02 0.000000 0.000000 0.000000 0.000000 0.000000 0.000000 10.000000 
R_front_hand02_02 0.000000 0.000000 0.000000 0.000000 0.000000 0.000000 10.000000 
R_front_hand03_02 0.000000 0.000000 0.000000 0.000000 0.000000 0.000000 10.000000 
null_rope01_connect 0.000000 0.000000 0.000000 0.000000 0.000000 0.000000 10.000000 
Rope1_Seg01 0.000000 0.000000 0.000000 0.000000 0.000000 0.000000 10.000000 
Rope1_Seg02 0.000000 0.000000 0.000000 0.000000 0.000000 0.000000 10.000000 
Rope1_Seg03 0.000000 0.000000 0.000000 0.000000 0.000000 0.000000 10.000000 
Rope1_Seg04 0.000000 0.000000 0.000000 0.000000 0.000000 0.000000 10.000000 
Rope1_Seg05 0.000000 0.000000 0.000000 0.000000 0.000000 0.000000 10.000000 
Rope1_Seg06 0.000000 0.000000 0.000000 0.000000 0.000000 0.000000 10.000000 
Rope1_Seg07 0.000000 0.000000 0.000000 0.000000 0.000000 0.000000 10.000000 
Rope1_Seg09 0.000000 0.000000 0.000000 0.000000 0.000000 0.000000 10.000000 
L_mid_hand01 0.000000 0.000000 0.000000 0.000000 0.000000 0.000000 10.000000 
L_mid_hand02 0.000000 0.000000 0.000000 0.000000 0.000000 0.000000 10.000000 
L_mid_hand03 0.000000 0.000000 0.000000 0.000000 0.000000 0.000000 10.000000 
null_rope02_connect 0.000000 0.000000 0.000000 0.000000 0.000000 0.000000 10.000000 
Rope2_Seg01 0.000000 0.000000 0.000000 0.000000 0.000000 0.000000 10.000000 
Rope2_Seg02 0.000000 0.000000 0.000000 0.000000 0.000000 0.000000 10.000000 
Rope2_Seg03 0.000000 0.000000 0.000000 0.000000 0.000000 0.000000 10.000000 
Rope2_Seg04 0.000000 0.000000 0.000000 0.000000 0.000000 0.000000 10.000000 
Rope2_Seg05 0.000000 0.000000 0.000000 0.000000 0.000000 0.000000 10.000000 
Rope2_Seg06 0.000000 0.000000 0.000000 0.000000 0.000000 0.000000 10.000000 
Rope2_Seg07 0.000000 0.000000 0.000000 0.000000 0.000000 0.000000 10.000000 
Rope2_Seg09 0.000000 0.000000 0.000000 0.000000 0.000000 0.000000 10.000000 
R_mid_hand01 0.000000 0.000000 0.000000 0.000000 0.000000 0.000000 10.000000 
R_mid_hand02 0.000000 0.000000 0.000000 0.000000 0.000000 0.000000 10.000000 
R_mid_hand03 0.000000 0.000000 0.000000 0.000000 0.000000 0.000000 10.000000 
spine02 0.000000 0.000000 0.000000 0.000000 0.000000 0.000000 10.000000 
spine03 0.000000 0.000000 0.000000 0.000000 0.000000 0.000000 10.000000 
pelvis 0.000000 0.000000 0.000000 0.000000 0.000000 0.000000 10.000000 
null_rope03_connect 0.000000 0.000000 0.000000 0.000000 0.000000 0.000000 10.000000 
null_rope04_connect 0.000000 0.000000 0.000000 0.000000 0.000000 0.000000 10.000000 
Rope3_Seg01 0.000000 0.000000 0.000000 0.000000 0.000000 0.000000 10.000000 
Rope3_Seg02 0.000000 0.000000 0.000000 0.000000 0.000000 0.000000 10.000000 
Rope3_Seg03 0.000000 0.000000 0.000000 0.000000 0.000000 0.000000 10.000000 
Rope3_Seg04 0.000000 0.000000 0.000000 0.000000 0.000000 0.000000 10.000000 
Rope3_Seg05 0.000000 0.000000 0.000000 0.000000 0.000000 0.000000 10.000000 
Rope3_Seg06 0.000000 0.000000 0.000000 0.000000 0.000000 0.000000 10.000000 
Rope3_Seg07 0.000000 0.000000 0.000000 0.000000 0.000000 0.000000 10.000000 
Rope3_Seg08 0.000000 0.000000 0.000000 0.000000 0.000000 0.000000 10.000000 
Rope3_Seg09 0.000000 0.000000 0.000000 0.000000 0.000000 0.000000 10.000000 
R_rear_hand01 0.000000 0.000000 0.000000 0.000000 0.000000 0.000000 10.000000 
R_rear_hand02 0.000000 0.000000 0.000000 0.000000 0.000000 0.000000 10.000000 
R_rear_hand03 0.000000 0.000000 0.000000 0.000000 0.000000 0.000000 10.000000 
Rope4_Seg01 0.000000 0.000000 0.000000 0.000000 0.000000 0.000000 10.000000 
Rope4_Seg02 0.000000 0.000000 0.000000 0.000000 0.000000 0.000000 10.000000 
Rope4_Seg03 0.000000 0.000000 0.000000 0.000000 0.000000 0.000000 10.000000 
Rope4_Seg04 0.000000 0.000000 0.000000 0.000000 0.000000 0.000000 10.000000 
Rope4_Seg05 0.000000 0.000000 0.000000 0.000000 0.000000 0.000000 10.000000 
Rope4_Seg06 0.000000 0.000000 0.000000 0.000000 0.000000 0.000000 10.000000 
Rope4_Seg07 0.000000 0.000000 0.000000 0.000000 0.000000 0.000000 10.000000 
Rope4_Seg08 0.000000 0.000000 0.000000 0.000000 0.000000 0.000000 10.000000 
Rope4_Seg09 0.000000 0.000000 0.000000 0.000000 0.000000 0.000000 10.000000 
L_rear_hand01 0.000000 0.000000 0.000000 0.000000 0.000000 0.000000 10.000000 
L_rear_hand02 0.000000 0.000000 0.000000 0.000000 0.000000 0.000000 10.000000 
L_rear_hand03 0.000000 0.000000 0.000000 0.000000 0.000000 0.000000 10.000000 
#Beginning of Data. Separated by tabs
#Fr	Tx	Ty	Tz	Rx	Ry	Rz	SF
[MASTER]
8 -0.000197 1388.112549 0.000000 0.001660 0.001660 0.001660 1388.112549
9 -0.000229 1603.020874 0.000000 0.001660 0.001660 0.001660 1603.020874
[root]
8 -20.151127 61.074608 652.382385 -89.371178 5.921295 -90.750870 655.544739
9 -28.295734 83.619080 718.045654 -89.599068 6.001030 -90.700241 723.451660
[chest]
8 -84.512650 -34.090519 0.000000 5.887300 -2.180211 161.851837 91.129311
9 -84.512650 -34.090519 0.000000 5.933676 -1.764189 159.250519 91.129311
[L_mid_tent01]
8 27.299427 22.177866 -249.918198 -16.836594 22.679949 33.161926 252.381104
9 27.299419 22.177916 -249.918228 -13.514627 20.854778 38.213169 252.381134
[R_mid_tent01]
8 23.228794 24.509907 226.238495 -25.339106 -19.139553 2.477891 228.744751
9 23.228794 24.509907 226.238495 -37.515282 -16.573221 -1.276836 228.744751
[spine01]
8 -0.361383 -0.195265 0.000000 0.668601 0.281276 18.244987 0.410763
9 -0.361383 -0.195265 0.000000 0.651886 0.271991 18.376289 0.410763
[Bip01_Neck]
8 165.484543 71.581718 0.000119 175.896118 1.177290 24.871185 180.302734
9 165.484543 71.581718 0.000119 175.896118 1.177290 24.871183 180.302734
[L_humerus]
8 -13.983130 -135.272980 -120.471481 -2.700007 65.723534 86.976707 181.680161
9 -13.983130 -135.272980 -120.471481 -2.711944 65.448380 86.953316 181.680161
[R_humerus]
8 -13.983309 -135.273102 125.287651 -62.666897 -49.188477 158.785980 184.909012
9 -13.983309 -135.273102 125.287651 -67.927986 -46.172272 166.824173 184.909012
[weapon_bone]
8 235.964890 -300.705902 0.000000 0.000000 -89.951546 -128.212341 382.234833
9 235.964890 -300.705902 0.000000 0.000000 -89.951546 -128.212341 382.234833
[Bip01_Head]
8 197.133484 125.401886 1.250875 3.679952 2.831232 -55.337597 233.642487
9 198.120728 129.136047 0.727806 5.560880 4.011819 -58.132248 236.492004
[eye_left_bone]
8 -24.626970 125.451866 -64.772606 0.000000 -90.000000 -99.840431 143.318359
9 -24.626970 125.451866 -64.772606 0.000000 -90.000000 -99.840431 143.318359
[eye_right_bone]
8 -24.626970 125.451866 64.327362 0.000000 -89.972023 80.159386 143.117676
9 -24.626970 125.451866 64.327362 0.000000 -89.972023 80.159393 143.117676
[L_forearm]
8 322.776093 0.000000 -0.000119 0.000215 -0.002337 -100.534317 322.776093
9 322.776093 0.000000 -0.000119 0.000223 -0.002337 -100.879883 322.776093
[L_front_hand]
8 241.149185 -0.042021 -3.300071 -178.667953 -1.835447 -27.422350 241.171753
9 241.149185 -0.042021 -3.300071 -178.667953 -1.835447 -27.422350 241.171753
[L_weapon_bone]
8 156.183838 0.000000 0.000000 0.000014 0.000007 0.000001 156.183838
9 156.183838 0.000000 0.000000 0.000014 0.000007 0.000001 156.183838
[L_front_hand01_01]
8 86.095154 20.947098 -0.655860 -0.366594 -0.477154 75.385574 88.609184
9 86.095154 20.947098 -0.655860 -0.366594 -0.477154 75.385574 88.609184
[L_front_hand02_01]
8 86.935165 -11.437475 24.513514 154.403519 -59.888924 -61.371983 91.046425
9 86.935165 -11.437475 24.513514 154.403519 -59.888931 -61.371990 91.046425
[L_front_hand03_01]
8 86.637497 -14.123976 -20.424902 -153.913879 58.118130 -62.702892 90.126129
9 86.637497 -14.123976 -20.424902 -153.913849 58.118122 -62.702866 90.126129
[L_front_hand01_02]
8 71.020905 -0.000179 0.000030 0.000334 -0.002323 -106.379684 71.020905
9 71.020905 -0.000179 0.000030 0.000334 -0.002323 -106.379684 71.020905
[L_front_hand02_02]
8 71.020927 -0.000119 0.000060 0.000334 -0.002323 -106.379684 71.020927
9 71.020927 -0.000119 0.000060 0.000334 -0.002323 -106.379684 71.020927
[L_front_hand03_02]
8 71.020905 -0.000060 0.000060 0.000334 -0.002323 -106.379684 71.020905
9 71.020905 -0.000060 0.000060 0.000334 -0.002323 -106.379684 71.020905
[R_forearm]
8 322.776428 -0.000060 0.000030 0.204493 0.053536 -105.412750 322.776428
9 322.776428 -0.000060 0.000030 0.206737 0.060121 -106.878975 322.776428
[R_front_hand]
8 238.847015 -0.006795 2.210259 -15.556391 -1.868809 -30.933933 238.857239
9 238.847015 -0.006795 2.210259 -17.589479 -1.745163 -27.471445 238.857239
[R_weapon_bone]
8 155.664093 0.002503 -0.000030 0.003487 0.001180 -90.988930 155.664078
9 155.664093 0.002503 -0.000030 0.003487 0.001180 -90.988914 155.664078
[R_front_hand01_01]
8 87.624611 14.231146 22.918642 -154.633286 -59.950581 61.745811 91.683487
9 87.624611 14.231146 22.918642 -122.121353 -31.679993 18.702341 91.683487
[R_front_hand02_01]
8 89.356956 14.367283 -19.491137 154.602463 58.302822 63.744175 92.579636
9 89.356956 14.367283 -19.491137 123.409935 30.457937 21.397129 92.579636
[R_front_hand03_01]
8 87.286232 -22.307278 -0.143439 0.162154 -0.423168 -75.767784 90.091743
9 87.286232 -22.307278 -0.143439 -0.147797 -0.427427 -35.767502 90.091743
[R_front_hand01_02]
8 71.020905 0.000060 0.000119 0.001889 0.001393 17.197989 71.020905
9 71.020905 0.000060 0.000119 0.001836 0.001466 12.787611 71.020905
[R_front_hand02_02]
8 71.020844 -0.000030 -0.000119 0.001889 0.001393 17.197989 71.020836
9 71.020844 -0.000030 -0.000119 0.001836 0.001466 12.787611 71.020836
[R_front_hand03_02]
8 71.020905 0.000000 0.000030 0.001889 0.001393 17.197989 71.020905
9 71.020905 0.000000 0.000030 0.001836 0.001466 12.787611 71.020905
[null_rope01_connect]
8 328.732483 0.000000 -0.000238 -165.420853 -62.434772 -147.290024 328.732483
9 328.732483 0.000000 -0.000238 -166.456909 -65.538551 -150.425232 328.732483
[Rope1_Seg01]
8 0.000000 0.000000 0.000000 84.390602 -46.987484 -159.703476 0.000000
9 0.000000 0.000000 0.000000 72.851509 -22.863440 -141.045776 0.000000
[Rope1_Seg02]
8 139.999863 -0.000179 0.000000 2.816606 0.843247 -15.650005 139.999863
9 139.999863 -0.000179 0.000000 7.200159 -0.266023 -10.824121 139.999863
[Rope1_Seg03]
8 139.999924 0.000060 -0.000060 6.154213 -1.081149 -15.372211 139.999924
9 139.999924 0.000060 -0.000060 8.898513 -3.375047 -7.785032 139.999924
[Rope1_Seg04]
8 139.999924 -0.000060 -0.000119 7.828741 -1.799760 -12.769828 139.999924
9 139.999924 -0.000060 -0.000119 6.425266 -4.649188 -3.244208 139.999924
[Rope1_Seg05]
8 139.999832 0.000119 -0.000060 47.899361 -2.351690 -41.416767 139.999832
9 139.999832 0.000119 -0.000060 20.858170 2.293761 -20.208670 139.999832
[Rope1_Seg06]
8 139.999954 0.000119 -0.000060 46.477177 -26.406343 -24.457396 139.999954
9 139.999954 0.000119 -0.000060 84.491035 -6.108706 -39.389030 139.999954
[Rope1_Seg07]
8 139.999985 0.000060 0.000000 6.128881 -11.332174 0.338671 139.999985
9 139.999985 0.000060 0.000000 13.910709 -17.444962 1.320016 139.999985
[Rope1_Seg09]
8 121.602913 0.000119 -0.000089 -89.793175 -1.359789 0.847147 121.602913
9 121.602913 0.000119 -0.000089 -89.793175 -1.359789 0.847147 121.602913
[L_mid_hand01]
8 103.859421 1.038730 8.195221 114.519859 -53.311390 -20.622526 104.187431
9 103.859421 1.038730 8.195221 114.519806 -53.311523 -20.622427 104.187431
[L_mid_hand02]
8 105.572853 -4.139662 -10.864139 -155.067673 38.166634 -52.448818 106.211075
9 105.572853 -4.139662 -10.864139 -155.067673 38.166626 -52.448818 106.211075
[L_mid_hand03]
8 104.641464 17.579376 -3.913581 -10.970132 15.317463 57.626957 106.179977
9 104.641464 17.579376 -3.913581 -10.970130 15.317461 57.626949 106.179977
[null_rope02_connect]
8 328.732849 0.000179 -0.000119 137.194870 -59.642292 -51.298698 328.732849
9 328.732849 0.000179 -0.000119 155.505356 -50.156696 -64.742493 328.732849
[Rope2_Seg01]
8 0.000018 0.000173 0.000138 -97.587990 27.865902 -28.424646 0.000222
9 0.000021 0.000188 0.000136 -110.921921 28.569780 -32.738674 0.000233
[Rope2_Seg02]
8 139.999741 -0.000060 -0.000119 -24.383926 0.692638 9.497469 139.999756
9 139.999741 -0.000060 -0.000119 -27.835443 1.343427 8.656451 139.999756
[Rope2_Seg03]
8 140.000107 0.000030 0.000000 -18.500879 -5.166996 14.291934 140.000107
9 140.000107 0.000030 0.000000 -17.622833 -3.691084 10.757240 140.000107
[Rope2_Seg04]
8 139.999802 0.000000 -0.000060 -13.148588 -13.439138 20.043158 139.999802
9 139.999802 0.000000 -0.000060 -10.582720 -8.974525 12.407449 139.999802
[Rope2_Seg05]
8 139.999985 -0.000060 0.000119 -3.016421 -14.116133 10.563338 139.999985
9 139.999985 -0.000060 0.000119 -4.195653 -8.552862 8.361894 139.999985
[Rope2_Seg06]
8 139.999893 -0.000030 -0.000119 -0.570431 -17.989204 5.542000 139.999893
9 139.999893 -0.000030 -0.000119 -2.499519 -8.674023 7.409418 139.999893
[Rope2_Seg07]
8 139.999893 0.000060 -0.000060 -1.844256 -20.667181 9.054671 139.999893
9 139.999893 0.000060 -0.000060 -3.789558 -17.498819 14.401724 139.999893
[Rope2_Seg09]
8 121.338966 0.000089 -0.000060 77.849152 0.001944 -1.534768 121.338966
9 121.338966 0.000089 -0.000060 80.550323 0.111605 -1.536861 121.338966
[R_mid_hand01]
8 104.680779 11.144459 -10.335981 -41.544983 25.383789 28.546396 105.778534
9 104.680779 11.144459 -10.335981 -45.141071 16.535091 18.542376 105.778534
[R_mid_hand02]
8 104.070427 2.443552 8.231699 72.861816 -32.686623 9.994235 104.424065
9 104.070427 2.443552 8.231699 74.660721 -20.338566 5.983855 104.424065
[R_mid_hand03]
8 106.028137 -11.221827 -5.996406 -167.889893 10.244056 -36.947144 106.788818
9 106.028137 -11.221827 -5.996406 -165.947678 7.322868 -24.277193 106.788818
[spine02]
8 129.756927 0.001550 0.000119 -0.249679 -8.598242 -4.335406 129.756927
9 129.756927 0.001550 0.000119 -0.250993 -9.407525 -4.330981 129.756927
[spine03]
8 78.556984 0.095058 -5.454200 1.780989 4.179665 14.892377 78.746155
9 78.557083 0.094927 -5.453303 1.811393 4.141301 15.297146 78.746193
[pelvis]
8 169.435242 0.051022 0.000000 -0.050500 -0.499374 4.017751 169.435257
9 169.435242 0.051022 0.000000 -0.051707 -0.493296 4.346375 169.435257
[null_rope03_connect]
8 -1.257226 -2.466202 137.391083 41.475651 -85.770248 9.899033 137.418976
9 -1.257226 -2.466202 137.391083 48.603352 -85.117859 1.826283 137.418976
[null_rope04_connect]
8 -1.259640 -2.480268 -137.844437 41.475651 -85.770248 9.899033 137.872513
9 -1.259640 -2.480268 -137.844437 48.603352 -85.117859 1.826283 137.872513
[Rope3_Seg01]
8 0.000062 -0.000146 0.000000 -131.427231 14.251447 -79.153275 0.000159
9 0.000060 -0.000162 0.000000 -130.935852 9.318245 -78.399582 0.000173
[Rope3_Seg02]
8 139.999924 -0.000119 0.000060 -0.122359 0.312188 3.513328 139.999924
9 139.999924 -0.000119 0.000060 -0.208432 -0.906527 4.035008 139.999924
[Rope3_Seg03]
8 139.999924 -0.000119 0.000119 -0.310104 0.384865 4.433105 139.999924
9 139.999924 -0.000119 0.000119 -0.503793 -1.139626 5.023494 139.999924
[Rope3_Seg04]
8 139.999924 0.000119 0.000000 -1.010068 0.066317 6.766027 139.999924
9 139.999924 0.000119 0.000000 -1.501629 -2.332758 7.591998 139.999924
[Rope3_Seg05]
8 139.999924 -0.000238 0.000060 -3.926772 -1.483436 13.604786 139.999924
9 139.999924 -0.000238 0.000060 -5.069768 -6.043344 14.114470 139.999924
[Rope3_Seg06]
8 139.999893 -0.000119 -0.000060 2.468662 4.226781 -0.209188 139.999893
9 139.999893 -0.000119 -0.000060 1.813582 3.939802 0.306560 139.999893
[Rope3_Seg07]
8 139.999771 0.000060 -0.000119 5.567146 6.308681 -10.403502 139.999771
9 139.999771 0.000060 -0.000119 5.999667 11.275121 -11.445875 139.999771
[Rope3_Seg08]
8 139.999985 -0.000060 0.000000 2.141622 2.306092 -3.344800 139.999985
9 139.999985 -0.000060 0.000000 2.614491 4.280668 -4.575105 139.999985
[Rope3_Seg09]
8 90.185997 -0.000179 -0.000060 80.357864 -1.359822 -0.848305 90.185997
9 90.185997 -0.000179 -0.000060 78.305756 -1.359675 -0.849823 90.185997
[R_rear_hand01]
8 103.366196 -6.073594 -10.757982 -165.486237 20.162525 -42.491131 104.101845
9 103.366196 -6.073594 -10.757982 -169.737930 22.551676 -54.126614 104.101845
[R_rear_hand02]
8 100.509819 12.039542 -7.992327 -29.942976 25.833334 40.126621 101.543350
9 100.509819 12.039542 -7.992327 -24.598206 30.936132 51.337250 101.543350
[R_rear_hand03]
8 101.539970 5.215704 5.435467 82.198990 -43.108894 9.209250 101.819031
9 101.539970 5.215704 5.435467 80.282906 -54.075901 11.757576 101.819031
[Rope4_Seg01]
8 0.000088 -0.000138 0.000000 43.997414 21.756332 -112.514359 0.000164
9 0.000087 -0.000174 0.000000 41.478329 17.915470 -120.335190 0.000195
[Rope4_Seg02]
8 139.999985 0.000060 0.000119 -0.330352 4.291225 -4.233311 139.999985
9 139.999985 0.000060 0.000119 -0.766629 6.864655 -1.738885 139.999985
[Rope4_Seg03]
8 139.999924 0.000000 -0.000238 -0.093655 2.992687 -3.647608 139.999924
9 139.999924 0.000000 -0.000238 -0.285192 5.163169 -1.640039 139.999924
[Rope4_Seg04]
8 139.999985 0.000000 0.000119 -0.010736 2.411275 -3.644956 139.999985
9 139.999985 0.000000 0.000119 -0.128099 4.803623 -3.092912 139.999985
[Rope4_Seg05]
8 139.999802 -0.000060 -0.000119 0.072381 0.500291 1.470895 139.999802
9 139.999802 -0.000060 -0.000119 0.102732 1.989122 0.977901 139.999802
[Rope4_Seg06]
8 139.999924 0.000000 0.000060 -0.080802 -0.683057 4.696993 139.999924
9 139.999924 0.000000 0.000060 -0.164440 -0.199862 4.424498 139.999924
[Rope4_Seg07]
8 139.999802 0.000000 0.000000 -0.071536 -0.456337 3.469435 139.999802
9 139.999802 0.000000 0.000000 -0.304551 -0.604923 4.559526 139.999802
[Rope4_Seg08]
8 139.999924 0.000000 0.000119 -1.567877 -0.103759 1.694730 139.999924
9 139.999924 0.000000 0.000119 -1.663227 0.116497 2.117064 139.999924
[Rope4_Seg09]
8 90.185791 0.000060 0.000060 -135.617828 2.228885 0.850567 90.185791
9 90.185791 0.000060 0.000060 -135.617828 2.228885 0.850567 90.185791
[L_rear_hand01]
8 101.696655 -8.392275 -7.654577 -19.915018 -33.950901 119.950104 102.329041
9 101.696655 -8.392275 -7.654577 -19.915020 -33.950905 119.950104 102.329041
[L_rear_hand02]
8 102.726799 -1.568258 5.773216 77.862244 61.878525 165.399200 102.900848
9 102.726799 -1.568258 5.773216 77.862221 61.878510 165.399200 102.900848
[L_rear_hand03]
8 104.552910 9.721220 -10.420293 -173.099182 -23.740307 -117.327896 105.519653
9 104.552910 9.721220 -10.420293 -173.099182 -23.740307 -117.327896 105.519653
